<?xml version="1.0" encoding="UTF-8" standalone="no"?><!DOCTYPE svg PUBLIC "-//W3C//DTD SVG 1.1//EN" "http://www.w3.org/Graphics/SVG/1.1/DTD/svg11.dtd"><svg width="100%" height="100%" viewBox="0 0 839 200" version="1.1" xmlns="http://www.w3.org/2000/svg" xmlns:xlink="http://www.w3.org/1999/xlink" xml:space="preserve" style="fill-rule:evenodd;clip-rule:evenodd;stroke-linejoin:round;stroke-miterlimit:1.41421;"><g id="XMLID_261_"><path id="XMLID_259_" d="M32.3,0l-32.3,0l92.3,160l16.2,-28l-76.2,-132Z" style="fill:#fff;fill-rule:nonzero;"/><path id="XMLID_258_" d="M120.9,91l-52.6,-91l-32.2,0l74.3,128.8l10.5,-18.2c1.7,-2.8 2.8,-6.2 2.8,-9.8c-0.1,-3.6 -1.1,-6.9 -2.8,-9.8l0,0Z" style="fill:#fff;fill-rule:nonzero;"/><path id="XMLID_257_" d="M56.3,104.1l-55.4,95.9l32.3,0l39.3,-68l-16.2,-27.9Z" style="fill:#fff;fill-rule:nonzero;"/><path id="XMLID_256_" d="M74.3,135.3l-37.3,64.7l32.2,0l21.3,-36.8l-16.2,-27.9Z" style="fill:#fff;fill-rule:nonzero;"/><path id="XMLID_7_" d="M230.651,52.032c0,10.949 -3.47,19.709 -10.244,26.122c-7.766,7.665 -18.01,11.576 -30.402,11.576c-11.897,0 -22.141,-3.911 -30.402,-11.732c-8.427,-7.821 -12.557,-17.519 -12.557,-29.251c0,-11.732 4.13,-21.274 12.557,-29.251c8.427,-7.822 18.505,-11.732 30.402,-11.732c5.948,0 11.566,1.095 17.018,3.285c5.453,2.19 9.749,5.162 12.888,8.759l-7.27,6.883c-5.452,-6.257 -13.053,-9.385 -22.636,-9.385c-8.757,0 -16.193,2.972 -22.636,8.759c-6.279,5.788 -9.584,13.296 -9.584,22.682c0,9.229 3.14,16.737 9.584,22.681c6.443,5.788 13.879,8.76 22.636,8.76c9.253,0 17.018,-2.972 23.132,-8.76c3.965,-3.754 6.278,-9.072 6.939,-15.799l-30.071,0l0,-9.385l40.15,0c0.331,1.877 0.496,3.911 0.496,5.788l0,0Zm10.575,35.977l0,-78.368l25.279,0c12.723,0 22.967,3.598 30.568,10.95c7.6,7.195 11.4,16.737 11.4,28.312c0,11.576 -3.8,21.117 -11.4,28.313c-7.601,7.195 -17.845,10.95 -30.568,10.95l-25.279,0l0,-0.157Zm10.574,-9.698l14.705,0c9.584,0 17.184,-2.659 22.802,-7.821c5.618,-5.162 8.426,-12.514 8.426,-21.743c0,-9.229 -2.808,-16.581 -8.426,-21.743c-5.618,-5.162 -13.218,-7.821 -22.802,-7.821l-14.705,0l0,59.128Zm147.053,-26.279c0,10.949 -3.47,19.709 -10.244,26.122c-7.766,7.665 -18.01,11.576 -30.402,11.576c-11.897,0 -22.141,-3.911 -30.402,-11.732c-8.427,-7.821 -12.557,-17.519 -12.557,-29.251c0,-11.732 4.13,-21.274 12.557,-29.251c8.427,-7.822 18.505,-11.732 30.402,-11.732c5.948,0 11.566,1.095 17.018,3.285c5.453,2.19 9.749,5.162 12.888,8.759l-7.27,6.883c-5.452,-6.257 -13.053,-9.385 -22.636,-9.385c-8.757,0 -16.192,2.972 -22.636,8.759c-6.279,5.788 -9.584,13.296 -9.584,22.682c0,9.229 3.14,16.737 9.584,22.681c6.444,5.788 13.879,8.76 22.636,8.76c9.253,0 17.018,-2.972 23.132,-8.76c3.965,-3.754 6.278,-9.072 6.939,-15.799l-30.071,0l0,-9.385l40.15,0c0.331,1.877 0.496,3.911 0.496,5.788l0,0Zm38.333,35.977l0,-78.368l25.28,0c12.722,0 22.966,3.598 30.567,10.95c7.6,7.195 11.401,16.737 11.401,28.312c0,11.576 -3.801,21.117 -11.401,28.313c-7.601,7.195 -17.845,10.95 -30.567,10.95l-25.28,0l0,-0.157Zm10.74,-9.698l14.705,0c9.583,0 17.184,-2.659 22.801,-7.821c5.618,-5.162 8.427,-12.514 8.427,-21.743c0,-9.229 -2.809,-16.581 -8.427,-21.743c-5.617,-5.162 -13.218,-7.821 -22.801,-7.821l-14.705,0l0,59.128Zm91.371,11.419c-8.592,0 -15.532,-2.659 -20.819,-8.134c-5.287,-5.475 -8.096,-12.201 -8.096,-20.492c0,-7.821 2.644,-14.547 7.766,-20.178c5.122,-5.632 11.896,-8.447 19.992,-8.447c8.427,0 15.201,2.659 20.158,7.821c5.122,5.162 7.6,12.045 7.6,20.804l-0.165,1.877l-44.777,0c0.331,5.475 2.148,9.699 5.783,12.827c3.47,3.129 7.601,4.693 12.393,4.693c7.6,0 12.722,-3.129 15.531,-9.229l9.418,3.754c-1.818,4.223 -4.957,7.665 -9.088,10.48c-4.296,2.816 -9.418,4.224 -15.696,4.224l0,0Zm15.366,-35.039c-0.165,-3.129 -1.652,-5.944 -4.461,-8.76c-2.809,-2.815 -6.775,-4.223 -12.227,-4.223c-3.966,0 -7.27,1.095 -10.244,3.441c-2.974,2.346 -4.957,5.475 -5.948,9.385l32.88,0l0,0.157Zm33.706,33.318l-22.966,-53.653l11.566,0l16.688,41.609l0.165,0l16.853,-41.609l11.401,0l-23.132,53.653l-10.575,0l0,0Zm50.56,0l-10.574,0l0,-78.368l48.411,0l0,9.698l-37.672,0l0,25.81l33.872,0l0,9.385l-34.037,0l0,33.475Zm69.892,1.721c-8.592,0 -15.532,-2.659 -20.819,-8.134c-5.287,-5.475 -8.096,-12.201 -8.096,-20.492c0,-7.821 2.643,-14.547 7.765,-20.178c5.288,-5.632 11.897,-8.447 19.993,-8.447c8.427,0 15.201,2.659 20.158,7.821c5.122,5.162 7.6,12.045 7.6,20.804l-0.165,1.877l-44.777,0c0.331,5.475 2.148,9.699 5.783,12.827c3.47,3.129 7.601,4.693 12.392,4.693c7.601,0 12.723,-3.129 15.532,-9.229l9.418,3.754c-1.818,4.223 -4.957,7.665 -9.088,10.48c-4.296,2.816 -9.583,4.224 -15.696,4.224l0,0Zm15.201,-35.039c-0.166,-3.129 -1.653,-5.944 -4.462,-8.76c-2.808,-2.815 -6.774,-4.223 -12.226,-4.223c-3.966,0 -7.27,1.095 -10.245,3.441c-2.974,2.346 -4.956,5.475 -5.948,9.385l32.881,0l0,0.157Zm39.654,35.039c-6.278,0 -11.566,-1.408 -15.696,-4.38c-4.131,-2.972 -7.105,-6.57 -9.088,-10.95l9.418,-3.754c2.974,6.726 8.096,10.011 15.366,10.011c3.305,0 6.114,-0.625 8.097,-2.033c2.147,-1.408 3.139,-3.285 3.139,-5.475c0,-3.441 -2.644,-5.944 -7.766,-7.039l-11.401,-2.659c-3.635,-0.939 -7.104,-2.503 -10.244,-5.006c-3.304,-2.503 -4.791,-5.788 -4.791,-9.855c0,-4.692 2.148,-8.603 6.609,-11.575c4.461,-2.972 9.748,-4.38 15.862,-4.38c4.956,0 9.418,1.095 13.383,3.285c3.966,2.19 6.774,5.162 8.427,9.229l-9.253,3.598c-2.148,-4.693 -6.444,-7.196 -12.888,-7.196c-3.139,0 -5.783,0.626 -7.931,1.877c-2.148,1.252 -3.304,2.972 -3.304,5.006c0,3.128 2.478,5.162 7.435,6.257l11.235,2.503c5.288,1.095 9.253,3.128 11.732,6.1c2.478,2.816 3.8,6.101 3.8,9.699c0,4.849 -2.148,8.759 -6.279,12.044c-3.965,3.129 -9.253,4.693 -15.862,4.693l0,0Zm54.36,-0.782c-5.948,0 -10.409,-1.565 -13.548,-4.537c-3.14,-2.972 -4.627,-7.195 -4.627,-12.67l0,-28.156l-9.913,0l0,-9.229l9.913,0l0,-16.425l10.575,0l0,16.425l13.879,0l0,9.229l-13.879,0l0,27.374c0,5.788 2.478,8.76 7.6,8.76c1.983,0 3.47,-0.313 4.792,-0.939l3.635,8.603c-2.313,1.095 -5.122,1.565 -8.427,1.565l0,0Zm-643.728,104.022c-5.948,0 -11.896,-1.878 -17.679,-5.632c-5.783,-3.754 -9.583,-8.916 -11.236,-15.642l9.749,-3.754c1.156,4.38 3.47,7.977 7.105,10.949c3.635,2.972 7.6,4.38 12.061,4.38c4.627,0 8.592,-1.095 11.897,-3.441c3.304,-2.346 4.956,-5.475 4.956,-9.385c0,-4.38 -1.652,-7.822 -4.956,-10.168c-3.305,-2.346 -8.427,-4.536 -15.532,-6.57c-7.27,-2.19 -12.888,-5.005 -16.688,-8.447c-3.8,-3.441 -5.618,-7.977 -5.618,-13.296c0,-5.631 2.314,-10.48 7.105,-14.704c4.627,-4.223 10.905,-6.257 18.34,-6.257c6.94,0 12.723,1.721 17.184,5.006c4.461,3.285 7.27,6.883 8.592,10.95l-9.748,3.754c-0.661,-2.503 -2.479,-4.849 -5.122,-6.883c-2.809,-2.19 -6.279,-3.128 -10.575,-3.128c-4.131,0 -7.601,1.095 -10.409,3.285c-2.975,2.19 -4.296,4.849 -4.296,7.977c0,2.972 1.321,5.319 3.965,7.352c2.644,2.034 6.609,3.754 11.731,5.475c4.131,1.251 7.436,2.503 10.244,3.598c2.809,1.095 5.453,2.659 8.262,4.692c2.809,1.878 4.957,4.38 6.444,7.196c1.487,2.816 2.148,6.257 2.148,10.011c0,3.754 -0.826,7.196 -2.479,10.168c-1.652,2.972 -3.8,5.318 -6.609,7.039c-2.809,1.72 -5.618,3.128 -8.922,4.067c-3.305,0.938 -6.609,1.408 -9.914,1.408l0,0Zm62.622,0c-8.592,0 -15.532,-2.66 -20.819,-8.135c-5.287,-5.474 -8.096,-12.201 -8.096,-20.491c0,-7.821 2.643,-14.547 7.765,-20.179c5.122,-5.631 11.897,-8.447 19.993,-8.447c8.427,0 15.201,2.66 20.158,7.822c5.122,5.162 7.6,12.044 7.6,20.804l-0.165,1.877l-44.777,0c0.331,5.475 2.148,9.698 5.783,12.827c3.47,3.128 7.601,4.693 12.392,4.693c7.601,0 12.723,-3.129 15.532,-9.229l9.418,3.754c-1.818,4.223 -4.957,7.664 -9.088,10.48c-4.296,2.816 -9.583,4.224 -15.696,4.224l0,0Zm15.201,-35.039c-0.166,-3.129 -1.653,-5.944 -4.462,-8.76c-2.808,-2.816 -6.774,-4.224 -12.226,-4.224c-3.966,0 -7.271,1.095 -10.245,3.442c-2.974,2.346 -4.956,5.475 -5.948,9.385l32.881,0l0,0.157Zm36.515,35.039c-5.948,0 -11.07,-1.721 -15.036,-4.85c-3.965,-3.285 -6.113,-7.664 -6.113,-12.983c0,-5.787 2.313,-10.48 7.105,-13.765c4.791,-3.285 10.739,-5.006 17.679,-5.006c6.279,0 11.401,1.095 15.366,3.285l0,-1.564c0,-3.911 -1.487,-7.039 -4.296,-9.542c-2.809,-2.346 -6.444,-3.598 -10.574,-3.598c-3.14,0 -5.949,0.626 -8.427,2.034c-2.478,1.408 -4.296,3.285 -5.122,5.631l-9.749,-3.91c1.322,-3.285 3.966,-6.257 7.766,-8.917c3.8,-2.815 8.923,-4.067 15.201,-4.067c7.27,0 13.218,2.034 18.01,6.101c4.792,4.067 7.105,9.698 7.105,16.894l0,32.379l-9.749,0l0,-7.508l-0.495,0c-4.296,6.413 -10.575,9.386 -18.671,9.386l0,0Zm1.817,-9.229c4.462,0 8.427,-1.565 11.897,-4.693c3.635,-3.129 5.452,-6.726 5.452,-10.95c-2.974,-2.346 -7.435,-3.441 -13.548,-3.441c-5.122,0 -9.088,1.095 -11.732,3.128c-2.643,2.19 -3.965,4.537 -3.965,7.509c0,2.659 1.157,4.692 3.635,6.257c2.313,1.407 5.122,2.19 8.261,2.19Zm58.161,9.229c-6.279,0 -11.566,-1.408 -15.697,-4.38c-4.131,-2.972 -7.105,-6.57 -9.088,-10.95l9.418,-3.754c2.975,6.726 8.097,10.011 15.367,10.011c3.304,0 6.113,-0.626 8.096,-2.034c2.148,-1.407 3.139,-3.284 3.139,-5.474c0,-3.442 -2.643,-5.944 -7.766,-7.039l-11.4,-2.66c-3.635,-0.938 -7.105,-2.502 -10.244,-5.005c-3.305,-2.503 -4.792,-5.788 -4.792,-9.855c0,-4.693 2.148,-8.603 6.609,-11.575c4.461,-2.972 9.749,-4.38 15.862,-4.38c4.957,0 9.418,1.095 13.383,3.285c3.966,2.19 6.775,5.162 8.427,9.229l-9.253,3.598c-2.148,-4.693 -6.444,-7.196 -12.887,-7.196c-3.14,0 -5.783,0.626 -7.931,1.877c-2.148,1.251 -3.305,2.972 -3.305,5.006c0,3.128 2.478,5.162 7.601,6.257l11.235,2.502c5.287,1.095 9.253,3.129 11.731,6.101c2.479,2.816 3.8,6.1 3.8,9.698c0,4.849 -2.148,8.76 -6.278,12.045c-4.131,3.128 -9.583,4.693 -16.027,4.693l0,0Zm34.532,-48.961c5.453,-5.475 12.392,-8.134 20.984,-8.134c8.427,0 15.532,2.659 20.984,8.134c5.453,5.475 8.262,12.201 8.262,20.491c0,8.134 -2.809,15.017 -8.262,20.492c-5.452,5.475 -12.392,8.134 -20.984,8.134c-8.426,0 -15.531,-2.659 -20.984,-8.134c-5.452,-5.475 -8.261,-12.201 -8.261,-20.492c0,-8.29 2.809,-15.016 8.261,-20.491Zm7.931,34.413c3.635,3.598 7.931,5.319 13.053,5.319c4.957,0 9.418,-1.721 13.053,-5.319c3.635,-3.598 5.453,-8.29 5.453,-14.078c0,-5.788 -1.818,-10.48 -5.453,-14.078c-3.635,-3.598 -7.931,-5.319 -13.053,-5.319c-4.957,0 -9.418,1.721 -13.053,5.319c-3.635,3.598 -5.452,8.29 -5.452,14.078c0,5.944 1.817,10.637 5.452,14.078Zm59.978,-40.826l0,7.508l0.496,0c1.487,-2.503 3.965,-4.693 7.27,-6.57c3.304,-1.721 6.939,-2.659 10.574,-2.659c6.94,0 12.392,2.033 16.027,6.1c3.635,4.067 5.618,9.542 5.618,16.425l0,32.849l-10.574,0l0,-31.285c0,-9.855 -4.627,-14.86 -14.045,-14.86c-4.461,0 -7.931,1.721 -10.74,5.005c-2.808,3.285 -4.13,7.196 -4.13,11.576l0,29.72l-10.575,0l0,-53.809l10.079,0Zm126.399,53.653l-50.394,0l0,-10.011c15.036,-14.391 24.784,-23.777 29.08,-28.157c3.8,-4.067 6.279,-7.039 7.6,-9.072c1.322,-2.034 1.983,-4.693 1.983,-7.665c0,-3.128 -1.322,-5.944 -3.965,-8.29c-2.644,-2.347 -6.114,-3.598 -10.575,-3.598c-3.965,0 -7.27,1.095 -9.748,3.285c-2.479,2.19 -3.966,4.693 -4.792,7.195l-9.748,-3.754c1.321,-3.91 4.13,-7.665 8.261,-11.106c4.131,-3.441 9.583,-5.318 16.192,-5.318c7.27,0 13.384,2.19 18.01,6.413c4.627,4.223 7.105,9.229 7.105,15.173c0,7.352 -4.131,15.173 -12.557,23.464l-23.132,21.743l36.68,0l0,9.698Zm60.97,-9.542c-5.783,7.508 -13.549,11.263 -22.967,11.263c-9.418,0 -17.184,-3.755 -22.967,-11.263c-5.783,-7.508 -8.757,-16.894 -8.757,-28c0,-11.106 2.974,-20.491 8.757,-28c5.783,-7.508 13.549,-11.262 22.967,-11.262c9.418,0 17.184,3.754 22.967,11.262c5.783,7.509 8.757,16.738 8.757,28c0,11.263 -2.809,20.492 -8.757,28l0,0Zm-22.967,1.721c6.279,0 11.401,-2.816 15.201,-8.447c3.8,-5.631 5.783,-12.671 5.783,-21.117c0,-8.604 -1.983,-15.643 -5.783,-21.118c-3.8,-5.631 -8.922,-8.447 -15.201,-8.447c-6.444,0 -11.566,2.816 -15.201,8.447c-3.8,5.632 -5.618,12.671 -5.618,21.118c0,8.446 1.818,15.486 5.618,21.117c3.635,5.631 8.757,8.447 15.201,8.447Zm65.595,7.821l-10.574,0l0,-62.413l-15.366,6.413l-4.131,-8.603l23.297,-10.324l6.774,0l0,74.927Zm21.976,1.721l-9.418,-4.537l36.68,-62.413l-39.985,0l0.165,-9.698l51.056,0l0,10.324l-38.498,66.324l0,0Z" style="fill:#fff;fill-rule:nonzero;"/></g></svg>